<svg viewBox="0 0 100 100" fill="none" xmlns="http://www.w3.org/2000/svg">
<path fill-rule="evenodd" clip-rule="evenodd" d="M23 59V23H59V46.9792L66 53.9792V20C66 17.7909 64.2091 16 62 16H20C17.7909 16 16 17.7909 16 20V62C16 64.2091 17.7909 66 20 66H53.9792L46.9792 59H23Z" fill="black"/>
<path fill-rule="evenodd" clip-rule="evenodd" d="M45.5251 45.5251C46.892 44.1583 49.108 44.1583 50.4749 45.5251L66 61.0503L81.5251 45.5251C82.892 44.1583 85.108 44.1583 86.4749 45.5251C87.8417 46.892 87.8417 49.108 86.4749 50.4749L70.9497 66L86.4749 81.5251C87.8417 82.892 87.8417 85.108 86.4749 86.4749C85.108 87.8417 82.892 87.8417 81.5251 86.4749L66 70.9497L50.4749 86.4749C49.108 87.8417 46.892 87.8417 45.5251 86.4749C44.1583 85.108 44.1583 82.892 45.5251 81.5251L61.0503 66L45.5251 50.4749C44.1583 49.108 44.1583 46.892 45.5251 45.5251Z" fill="black"/>
</svg>
