<svg viewBox="0 0 100 100" fill="none" xmlns="http://www.w3.org/2000/svg">
<path fill-rule="evenodd" clip-rule="evenodd" d="M46.0556 51.5004C47.9883 51.5311 49.5302 53.1228 49.4996 55.0556L48.9996 86.5516C48.9689 88.4843 47.3773 90.0263 45.4445 89.9956C43.5118 89.9649 41.9698 88.3732 42.0005 86.4405L42.3663 63.3931L16.4353 88.5138C15.0469 89.8588 12.8311 89.8236 11.4862 88.4353C10.1412 87.0469 10.1764 84.8311 11.5647 83.4862L37.4958 58.3655L14.4484 57.9996C12.5157 57.969 10.9737 56.3773 11.0044 54.4445C11.0351 52.5118 12.6268 50.9698 14.5595 51.0005L46.0556 51.5004Z" fill="black"/>
<path fill-rule="evenodd" clip-rule="evenodd" d="M53.9444 48.4995C52.0117 48.4689 50.4698 46.8772 50.5004 44.9444L51.0004 13.4484C51.0311 11.5157 52.6227 9.97372 54.5555 10.0044C56.4882 10.0351 58.0302 11.6268 57.9995 13.5595L57.6337 36.6069L83.5647 11.4862C84.9531 10.1412 87.1689 10.1764 88.5138 11.5647C89.8588 12.9531 89.8236 15.1689 88.4353 16.5138L62.5042 41.6345L85.5516 42.0004C87.4843 42.031 89.0263 43.6227 88.9956 45.5555C88.9649 47.4882 87.3732 49.0302 85.4405 48.9995L53.9444 48.4995Z" fill="black"/>
</svg>
