<?xml version="1.0" encoding="utf-8"?>
<!-- Generator: Adobe Illustrator 27.5.0, SVG Export Plug-In . SVG Version: 6.00 Build 0)  -->
<svg version="1.1" id="Layer_1" xmlns="http://www.w3.org/2000/svg" xmlns:xlink="http://www.w3.org/1999/xlink" x="0px" y="0px"
	 viewBox="0 0 100 100" style="enable-background:new 0 0 100 100;" xml:space="preserve">
<style type="text/css">
	.st0{fill-rule:evenodd;clip-rule:evenodd;}
</style>
<path class="st0" d="M79.5,18c1.9,0,3.5,1.6,3.5,3.5V53c0,1.9-1.6,3.5-3.5,3.5S76,54.9,76,53V29.9L29.9,76H53c1.9,0,3.5,1.6,3.5,3.5
	S54.9,83,53,83H21.5c-1.9,0-3.5-1.6-3.5-3.5V48c0-1.9,1.6-3.5,3.5-3.5S25,46.1,25,48v23.1L71.1,25H48c-1.9,0-3.5-1.6-3.5-3.5
	S46.1,18,48,18H79.5z"/>
</svg>
