<?xml version="1.0" encoding="utf-8"?>
<!-- Generator: Adobe Illustrator 27.5.0, SVG Export Plug-In . SVG Version: 6.00 Build 0)  -->
<svg version="1.1" id="Layer_1" xmlns="http://www.w3.org/2000/svg" xmlns:xlink="http://www.w3.org/1999/xlink" x="0px" y="0px"
	 viewBox="0 0 100 100" style="enable-background:new 0 0 100 100;" xml:space="preserve">
<style type="text/css">
	.st0{fill-rule:evenodd;clip-rule:evenodd;}
</style>
<path class="st0" d="M10.5,52.6c-0.6-0.9-1.2-1.7-1.8-2.6c0.6-0.9,1.2-1.8,1.8-2.6C33.2,15,67.8,15,90.5,47.4
	c0.6,0.9,1.2,1.7,1.8,2.6c-0.6,0.9-1.2,1.8-1.8,2.6C67.8,85,33.2,85,10.5,52.6z M84.5,50c-10.3-14.2-22.6-20.4-34-20.4
	s-23.6,6.3-34,20.4c10.3,14.2,22.6,20.4,34,20.4S74.1,64.2,84.5,50z"/>
<path class="st0" d="M51,58.6c4.8,0,8.6-3.9,8.6-8.6c0-4.8-3.9-8.6-8.6-8.6c-4.8,0-8.6,3.9-8.6,8.6C42.4,54.8,46.3,58.6,51,58.6z
	 M51,65.1c8.3,0,15.1-6.7,15.1-15.1S59.4,34.9,51,34.9C42.7,34.9,36,41.7,36,50S42.7,65.1,51,65.1z"/>
</svg>
