<svg viewBox="0 0 100 100" fill="none" xmlns="http://www.w3.org/2000/svg">
<path fill-rule="evenodd" clip-rule="evenodd" d="M50 80C66.5685 80 80 66.5685 80 50C80 33.4315 66.5685 20 50 20C33.4315 20 20 33.4315 20 50C20 66.5685 33.4315 80 50 80ZM50 87C70.4345 87 87 70.4345 87 50C87 29.5655 70.4345 13 50 13C29.5655 13 13 29.5655 13 50C13 70.4345 29.5655 87 50 87Z" fill="black"/>
<path d="M44.9091 58.7897V58.1136C44.9224 55.7935 45.1279 53.9441 45.5256 52.5653C45.9366 51.1865 46.5332 50.0729 47.3154 49.2244C48.0976 48.3759 49.0389 47.607 50.1392 46.9176C50.9612 46.3873 51.697 45.8371 52.3466 45.267C52.9962 44.6969 53.5133 44.0672 53.8978 43.3778C54.2822 42.6752 54.4745 41.893 54.4745 41.0312C54.4745 40.1164 54.2557 39.3144 53.8182 38.625C53.3807 37.9356 52.7907 37.4053 52.0483 37.0341C51.3192 36.6629 50.5104 36.4772 49.6222 36.4772C48.7604 36.4772 47.9451 36.6695 47.1762 37.0539C46.4072 37.4252 45.7775 37.982 45.287 38.7244C44.7964 39.4536 44.5313 40.3617 44.4915 41.4488H36.3779C36.4442 38.7973 37.0805 36.6098 38.287 34.8863C39.4934 33.1496 41.0909 31.857 43.0796 31.0085C45.0682 30.1468 47.2623 29.7159 49.662 29.7159C52.3002 29.7159 54.6336 30.1534 56.662 31.0284C58.6904 31.8901 60.2813 33.143 61.4347 34.7869C62.5881 36.4308 63.1648 38.4129 63.1648 40.7329C63.1648 42.2841 62.9063 43.6629 62.3892 44.8693C61.8854 46.0625 61.1762 47.1231 60.2614 48.0511C59.3466 48.9659 58.2661 49.7945 57.0199 50.5369C55.9726 51.16 55.1108 51.8096 54.4347 52.4858C53.7718 53.1619 53.2746 53.9441 52.9432 54.8324C52.625 55.7206 52.4593 56.8144 52.4461 58.1136V58.7897H44.9091ZM48.8466 71.517C47.5209 71.517 46.3873 71.053 45.4461 70.125C44.518 69.1837 44.0606 68.0568 44.0739 66.7443C44.0606 65.4451 44.518 64.3314 45.4461 63.4034C46.3873 62.4754 47.5209 62.0113 48.8466 62.0113C50.1061 62.0113 51.2131 62.4754 52.1676 63.4034C53.1222 64.3314 53.6061 65.4451 53.6193 66.7443C53.6061 67.6193 53.3741 68.4214 52.9233 69.1505C52.4858 69.8665 51.9091 70.4432 51.1932 70.8807C50.4773 71.3049 49.6951 71.517 48.8466 71.517Z" fill="black"/>
</svg>
