<?xml version="1.0" encoding="utf-8"?>
<!-- Generator: Adobe Illustrator 27.5.0, SVG Export Plug-In . SVG Version: 6.00 Build 0)  -->
<svg version="1.1" id="Layer_1" xmlns="http://www.w3.org/2000/svg" xmlns:xlink="http://www.w3.org/1999/xlink" x="0px" y="0px"
	 viewBox="0 0 100 100" style="enable-background:new 0 0 100 100;" xml:space="preserve">
<style type="text/css">
	.st0{fill-rule:evenodd;clip-rule:evenodd;}
</style>
<path class="st0" d="M30.5,16.6c0.5-0.8,1.3-1.2,2.2-1.2l34.2,0.7c2.7,0.1,5.2,1.6,6.5,4l15.8,30.4c0.4,0.8,0.4,1.7-0.1,2.5
	L71.3,81.8c-1.4,2.3-3.9,3.6-6.5,3.5l-34.3-0.7c-0.9,0-1.7-0.5-2.2-1.3l-16-30.5c-1.2-2.3-1.1-5.2,0.3-7.4L30.5,16.6z M32.4,23
	l14.5,27.8L30.6,77.1L16.8,50.5c-0.4-0.8-0.4-1.7,0.1-2.5L32.4,23z M34.9,79.7l30,0.6c0.9,0,1.7-0.4,2.2-1.2L82.7,54l-31.4-0.6
	L34.9,79.7z M51.3,48.4L82.8,49L69,22.5c-0.4-0.8-1.3-1.3-2.2-1.3l-30-0.6L51.3,48.4z"/>
<path d="M53.5,28c0,1.6-1.3,3-3,3c-1.6,0-3-1.3-3-3c0-1.6,1.3-3,3-3S53.5,26.4,53.5,28z"/>
<path d="M58.3,35.1c0,1.6-1.3,3-3,3c-1.6,0-3-1.3-3-3c0-1.6,1.3-3,3-3S58.3,33.5,58.3,35.1z"/>
<path d="M63,42.2c0,1.6-1.3,3-3,3c-1.6,0-3-1.3-3-3s1.3-3,3-3C61.7,39.3,63,40.6,63,42.2z"/>
<path d="M63,28c0,1.6-1.3,3-3,3c-1.6,0-3-1.3-3-3c0-1.6,1.3-3,3-3S63,26.4,63,28z"/>
<path d="M67.8,35.1c0,1.6-1.3,3-3,3c-1.6,0-3-1.3-3-3c0-1.6,1.3-3,3-3C66.4,32.1,67.8,33.5,67.8,35.1z"/>
<path d="M72.5,42.2c0,1.6-1.3,3-3,3c-1.6,0-3-1.3-3-3s1.3-3,3-3C71.2,39.3,72.5,40.6,72.5,42.2z"/>
<path d="M49.8,50.9L30.4,82.2l34.3,0.7c1.8,0,3.5-0.9,4.4-2.4L87,51.7L49.8,50.9z M53.5,62.4c0-1.6,1.3-3,3-3c1.6,0,3,1.3,3,3
	c0,1.6-1.3,3-3,3C54.9,65.4,53.5,64.1,53.5,62.4z M61.2,74.9c-1.7,0-3-1.3-3-3c0-1.6,1.3-3,3-3s3,1.3,3,3
	C64.2,73.5,62.9,74.9,61.2,74.9z"/>
<path d="M34.6,41c0,1.6-1.3,3-3,3c-1.6,0-3-1.3-3-3c0-1.6,1.3-3,3-3C33.2,38.1,34.6,39.4,34.6,41z"/>
<path d="M28.6,49.3c0,1.6-1.3,3-3,3c-1.6,0-3-1.3-3-3c0-1.6,1.3-3,3-3C27.3,46.4,28.6,47.7,28.6,49.3z"/>
<path d="M40.5,51.7c0,1.6-1.3,3-3,3c-1.6,0-3-1.3-3-3s1.3-3,3-3S40.5,50.1,40.5,51.7z"/>
<path d="M34.6,60c0,1.6-1.3,3-3,3c-1.6,0-3-1.3-3-3c0-1.6,1.3-3,3-3C33.2,57,34.6,58.4,34.6,60z"/>
</svg>
