<svg viewBox="0 0 100 100" fill="none" xmlns="http://www.w3.org/2000/svg">
<path fill-rule="evenodd" clip-rule="evenodd" d="M24.5251 24.5251C25.892 23.1583 28.108 23.1583 29.4749 24.5251L50 45.0503L70.5251 24.5251C71.892 23.1583 74.108 23.1583 75.4749 24.5251C76.8417 25.892 76.8417 28.108 75.4749 29.4749L54.9497 50L74.4749 69.5251C75.8417 70.892 75.8417 73.108 74.4749 74.4749C73.108 75.8417 70.892 75.8417 69.5251 74.4749L50 54.9497L30.4749 74.4749C29.108 75.8417 26.892 75.8417 25.5251 74.4749C24.1583 73.108 24.1583 70.892 25.5251 69.5251L45.0503 50L24.5251 29.4749C23.1583 28.108 23.1583 25.892 24.5251 24.5251Z" fill="black"/>
</svg>
