<svg viewBox="0 0 100 100" fill="none" xmlns="http://www.w3.org/2000/svg">
<path fill-rule="evenodd" clip-rule="evenodd" d="M29.8787 29.8787C31.0503 28.7071 32.9497 28.7071 34.1213 29.8787L49.75 45.5074L65.3787 29.8787C66.5503 28.7071 68.4497 28.7071 69.6213 29.8787C70.7929 31.0503 70.7929 32.9497 69.6213 34.1213L53.9926 49.75L69.6213 65.3787C70.7929 66.5503 70.7929 68.4497 69.6213 69.6213C68.4497 70.7929 66.5503 70.7929 65.3787 69.6213L49.75 53.9926L34.1213 69.6213C32.9497 70.7929 31.0503 70.7929 29.8787 69.6213C28.7071 68.4497 28.7071 66.5503 29.8787 65.3787L45.5074 49.75L29.8787 34.1213C28.7071 32.9497 28.7071 31.0503 29.8787 29.8787Z" fill="black"/>
</svg>
