<svg viewBox="0 0 100 100" fill="none" xmlns="http://www.w3.org/2000/svg">
<path fill-rule="evenodd" clip-rule="evenodd" d="M24 54.5C25.933 54.5 27.5 56.067 27.5 58V77.5H72.5V58C72.5 56.067 74.067 54.5 76 54.5C77.933 54.5 79.5 56.067 79.5 58V81C79.5 82.933 77.933 84.5 76 84.5H24C22.067 84.5 20.5 82.933 20.5 81V58C20.5 56.067 22.067 54.5 24 54.5Z" fill="black"/>
<path fill-rule="evenodd" clip-rule="evenodd" d="M50 10.5C51.933 10.5 53.5 12.067 53.5 14L53.5 50.5503L63.5251 40.5251C64.892 39.1583 67.108 39.1583 68.4749 40.5251C69.8417 41.892 69.8417 44.108 68.4749 45.4749L52.4749 61.4749C51.8185 62.1313 50.9283 62.5 50 62.5C49.0717 62.5 48.1815 62.1313 47.5251 61.4749L31.5251 45.4749C30.1583 44.108 30.1583 41.892 31.5251 40.5251C32.892 39.1583 35.108 39.1583 36.4749 40.5251L46.5 50.5503L46.5 14C46.5 12.067 48.067 10.5 50 10.5Z" fill="black"/>
</svg>
