<svg viewBox="0 0 100 100" fill="none" xmlns="http://www.w3.org/2000/svg">
<path fill-rule="evenodd" clip-rule="evenodd" d="M16.5 20C16.5 18.067 18.067 16.5 20 16.5H40C41.933 16.5 43.5 18.067 43.5 20C43.5 21.933 41.933 23.5 40 23.5H23.5V40C23.5 41.933 21.933 43.5 20 43.5C18.067 43.5 16.5 41.933 16.5 40V20Z" fill="black"/>
<path fill-rule="evenodd" clip-rule="evenodd" d="M80 16.5C81.933 16.5 83.5 18.067 83.5 20L83.5 40C83.5 41.933 81.933 43.5 80 43.5C78.067 43.5 76.5 41.933 76.5 40L76.5 23.5L60 23.5C58.067 23.5 56.5 21.933 56.5 20C56.5 18.067 58.067 16.5 60 16.5L80 16.5Z" fill="black"/>
<path fill-rule="evenodd" clip-rule="evenodd" d="M83.5 80C83.5 81.933 81.933 83.5 80 83.5L60 83.5C58.067 83.5 56.5 81.933 56.5 80C56.5 78.067 58.067 76.5 60 76.5L76.5 76.5L76.5 60C76.5 58.067 78.067 56.5 80 56.5C81.933 56.5 83.5 58.067 83.5 60L83.5 80Z" fill="black"/>
<path fill-rule="evenodd" clip-rule="evenodd" d="M20 83.5C18.067 83.5 16.5 81.933 16.5 80L16.5 60C16.5 58.067 18.067 56.5 20 56.5C21.933 56.5 23.5 58.067 23.5 60L23.5 76.5L40 76.5C41.933 76.5 43.5 78.067 43.5 80C43.5 81.933 41.933 83.5 40 83.5L20 83.5Z" fill="black"/>
<path fill-rule="evenodd" clip-rule="evenodd" d="M50 36C51.6569 36 53 37.3431 53 39V46H60C61.6569 46 63 47.3431 63 49C63 50.6569 61.6569 52 60 52H53V59C53 60.6569 51.6569 62 50 62C48.3431 62 47 60.6569 47 59L47 52H40C38.3431 52 37 50.6569 37 49C37 47.3431 38.3431 46 40 46H47V39C47 37.3431 48.3431 36 50 36Z" fill="black"/>
</svg>
