<svg viewBox="0 0 100 100" fill="none" xmlns="http://www.w3.org/2000/svg">
<path fill-rule="evenodd" clip-rule="evenodd" d="M47.5251 16.5251C48.892 15.1583 51.108 15.1583 52.4749 16.5251L68.4749 32.5251C69.8417 33.892 69.8417 36.108 68.4749 37.4749C67.108 38.8417 64.892 38.8417 63.5251 37.4749L53.5 27.4497V65C53.5 66.933 51.933 68.5 50 68.5C48.067 68.5 46.5 66.933 46.5 65V27.4497L36.4749 37.4749C35.108 38.8417 32.892 38.8417 31.5251 37.4749C30.1583 36.108 30.1583 33.892 31.5251 32.5251L47.5251 16.5251Z" fill="black"/>
<path fill-rule="evenodd" clip-rule="evenodd" d="M24 54.5C25.933 54.5 27.5 56.067 27.5 58V77.5H72.5V58C72.5 56.067 74.067 54.5 76 54.5C77.933 54.5 79.5 56.067 79.5 58V81C79.5 82.933 77.933 84.5 76 84.5H24C22.067 84.5 20.5 82.933 20.5 81V58C20.5 56.067 22.067 54.5 24 54.5Z" fill="black"/>
</svg>
